<?xml version="1.0" standalone="no"?>
<!DOCTYPE svg PUBLIC "-//W3C//DTD SVG 20010904//EN"
 "http://www.w3.org/TR/2001/REC-SVG-20010904/DTD/svg10.dtd">
<svg version="1.0" xmlns="http://www.w3.org/2000/svg"
 width="1122.000000pt" height="213.000000pt" viewBox="0 0 1122.000000 213.000000"
 preserveAspectRatio="xMidYMid meet">

<g transform="translate(0.000000,213.000000) scale(0.100000,-0.100000)"
fill="#000000" stroke="none">
<path d="M1091 2036 c-113 -206 -160 -362 -231 -768 -22 -127 -43 -234 -45
-237 -3 -2 -5 81 -5 185 0 361 27 576 99 792 l38 112 -26 0 c-42 -1 -103 -18
-112 -31 -4 -7 -17 -62 -29 -123 -34 -170 -38 -422 -11 -710 20 -210 22 -267
7 -219 -123 421 -157 604 -160 845 0 82 -3 148 -6 148 -3 0 -28 -14 -57 -30
-51 -29 -51 -30 -47 -72 30 -290 61 -407 208 -792 25 -66 44 -121 42 -123 -7
-8 -202 315 -262 435 -34 67 -81 182 -105 255 -24 72 -45 134 -46 137 -2 2
-22 -15 -45 -37 l-41 -42 18 -48 c58 -156 181 -360 349 -577 59 -76 105 -140
103 -142 -6 -7 -204 164 -292 252 -97 98 -182 201 -240 292 -22 34 -42 62 -46
62 -3 0 -15 -21 -27 -46 l-23 -46 28 -37 c93 -122 288 -297 486 -435 53 -37
97 -69 97 -72 0 -8 -86 29 -229 97 -139 67 -303 166 -388 235 -23 19 -46 34
-51 34 -5 0 -12 -19 -16 -42 -8 -50 -6 -52 132 -129 147 -82 297 -142 522
-211 l75 -23 -75 -3 c-163 -8 -415 40 -592 110 l-88 35 6 -71 c4 -39 12 -77
18 -84 18 -19 216 -60 353 -73 141 -13 298 -4 571 35 228 32 272 37 247 25
-40 -18 -505 -128 -608 -143 -116 -18 -366 -21 -467 -6 -35 5 -65 8 -67 6 -1
-1 9 -33 24 -71 l26 -68 156 6 c236 9 352 38 745 183 109 41 204 74 210 74 6
0 -88 -57 -209 -125 -305 -174 -473 -242 -692 -285 -52 -10 -97 -20 -99 -23
-2 -2 14 -27 37 -55 46 -59 37 -59 179 -10 185 64 364 166 644 366 71 51 138
98 150 104 34 19 -160 -187 -286 -302 -129 -118 -252 -209 -380 -282 -46 -26
-89 -51 -96 -55 -9 -6 3 -18 42 -41 l55 -34 61 42 c170 115 302 246 508 502
69 87 128 155 130 153 7 -6 -174 -341 -235 -435 -64 -98 -144 -201 -221 -282
-37 -39 -50 -59 -41 -62 8 -3 34 -10 59 -16 52 -14 49 -17 158 145 86 127 163
278 242 475 60 149 88 204 76 150 -3 -14 -15 -77 -26 -140 -42 -231 -104 -429
-185 -589 l-37 -74 53 5 c33 4 57 12 65 22 21 29 74 205 99 331 25 125 39 229
50 378 4 49 9 87 11 85 7 -8 24 -151 34 -288 9 -132 2 -335 -16 -447 l-6 -42
43 12 44 13 -1 184 c0 202 -14 313 -63 510 -27 107 -28 113 -9 90 34 -41 114
-210 152 -318 30 -87 50 -169 83 -340 l8 -44 62 42 c71 47 69 33 26 178 -68
231 -155 380 -430 735 -68 87 -123 161 -123 165 0 22 380 -383 462 -493 84
-112 152 -226 201 -340 l40 -94 43 52 c24 29 44 59 44 68 0 21 -83 158 -145
239 -87 114 -224 248 -432 422 -112 94 -203 172 -203 175 0 3 17 -5 38 -17 20
-13 102 -61 182 -108 286 -167 452 -296 584 -451 38 -44 73 -81 77 -81 11 0
51 111 45 126 -9 23 -170 155 -281 229 -111 74 -262 153 -498 260 -70 32 -131
63 -134 68 -4 6 0 8 10 4 9 -3 90 -25 179 -48 300 -76 516 -160 691 -267 37
-23 70 -42 72 -42 3 0 5 29 5 64 l0 63 -77 36 c-187 85 -385 139 -673 183 -96
14 -181 30 -189 34 -27 15 396 23 537 11 122 -11 269 -36 350 -60 31 -9 32 -9
25 17 -21 88 -27 97 -79 106 -27 5 -148 9 -269 9 -206 1 -381 -14 -560 -49
-118 -23 208 96 387 141 124 32 274 55 355 55 l63 0 -30 49 -30 48 -78 -12
c-178 -29 -413 -110 -624 -216 -43 -22 -78 -36 -78 -32 0 12 197 156 295 216
99 60 218 121 309 158 l58 24 -37 32 -38 33 -66 -37 c-171 -95 -330 -213 -477
-355 -50 -48 -94 -88 -98 -88 -11 0 54 110 117 198 74 104 209 247 304 323 81
64 81 63 -9 102 l-57 25 -89 -93 c-164 -171 -266 -347 -412 -710 -68 -170 -99
-238 -100 -223 -1 18 145 510 175 587 57 151 127 279 222 409 36 48 49 74 41
77 -7 3 -41 9 -75 13 l-62 9 -50 -91z m98 -891 c68 -119 122 -218 119 -220 -3
-3 -118 -4 -255 -3 l-250 3 124 218 c69 119 128 217 132 217 3 0 62 -97 130
-215z"/>
<path d="M6541 1205 c-101 -234 -186 -425 -190 -425 -3 0 -87 189 -186 419
-99 231 -183 416 -186 413 -4 -4 -50 -236 -103 -517 -54 -280 -99 -518 -102
-527 -5 -16 2 -18 53 -18 l58 0 65 345 c35 190 67 345 70 345 3 0 77 -162 165
-360 88 -198 163 -360 166 -360 3 0 63 129 134 288 184 411 195 435 201 430 2
-3 29 -135 59 -294 30 -159 60 -313 66 -341 l10 -53 55 0 c30 0 54 4 54 8 0 8
-199 1050 -203 1064 -1 4 -85 -184 -186 -417z"/>
<path d="M3021 1594 c-7 -16 -102 -231 -211 -479 -109 -247 -209 -476 -223
-507 l-26 -58 62 0 62 0 60 145 60 145 223 -2 223 -3 59 -140 58 -140 62 -3
c48 -2 61 0 57 10 -3 7 -101 236 -217 508 -116 272 -217 508 -224 524 l-12 29
-13 -29z m98 -441 c45 -109 81 -201 81 -205 0 -5 -76 -8 -170 -8 -126 0 -170
3 -170 12 0 18 163 398 170 398 4 0 44 -89 89 -197z"/>
<path d="M3740 1065 l0 -515 240 0 240 0 0 50 0 50 -182 2 -183 3 -3 463 -2
462 -55 0 -55 0 0 -515z"/>
<path d="M4330 1525 l0 -55 125 0 125 0 0 -460 0 -460 55 0 55 0 0 460 0 460
125 0 125 0 0 55 0 55 -305 0 -305 0 0 -55z"/>
<path d="M5290 1065 l0 -515 55 0 55 0 0 515 0 515 -55 0 -55 0 0 -515z"/>
<path d="M7240 1065 l0 -515 260 0 260 0 0 50 0 50 -205 0 -205 0 0 205 0 205
200 0 200 0 0 50 0 50 -200 0 -200 0 0 155 0 155 205 0 205 0 0 55 0 55 -260
0 -260 0 0 -515z"/>
<path d="M8030 1525 l0 -55 125 0 125 0 0 -460 0 -460 55 0 55 0 0 460 0 460
125 0 125 0 0 55 0 55 -305 0 -305 0 0 -55z"/>
<path d="M9950 1065 l0 -515 55 0 55 0 0 515 0 515 -55 0 -55 0 0 -515z"/>
<path d="M10500 1065 l0 -515 55 0 55 0 0 224 c0 180 3 226 14 235 11 10 53
-32 223 -223 l208 -235 78 -1 78 0 -228 251 c-125 138 -237 262 -247 276 l-19
25 239 239 239 239 -73 0 -73 0 -219 -222 -219 -223 -1 223 0 222 -55 0 -55 0
0 -515z"/>
<path d="M8960 1061 l0 -511 60 0 60 0 2 223 3 222 165 -222 165 -222 72 -1
72 0 -141 186 c-77 102 -138 187 -136 189 1 1 29 10 60 19 231 66 301 354 129
527 -82 81 -116 91 -333 97 l-178 4 0 -511z m339 393 c107 -31 177 -148 151
-252 -29 -119 -112 -174 -272 -180 l-98 -4 0 226 0 226 83 0 c46 0 107 -7 136
-16z"/>
</g>
</svg>
